<?xml version="1.0" encoding="utf-8"?>
<!-- Generator: Adobe Illustrator 27.0.0, SVG Export Plug-In . SVG Version: 6.00 Build 0)  -->
<svg version="1.1" id="Capa_1" xmlns="http://www.w3.org/2000/svg" xmlns:xlink="http://www.w3.org/1999/xlink" x="0px" y="0px"
	 viewBox="0 0 512 512" style="enable-background:new 0 0 512 512;" xml:space="preserve">
<style type="text/css">
	.st0{fill-rule:evenodd;clip-rule:evenodd;fill:#895057;}
	.st1{fill-rule:evenodd;clip-rule:evenodd;fill:#B9967D;}
</style>
<g>
	<path class="st0" d="M440.1,417.4c2.9,33.9-10.7,56.7-38,71.9c-11.9,6.6-25,9.7-38.3,11.8c-7.1,1.1-14.1,0.1-20.7-2.8
		c-5.8-2.6-12-4.5-17.4-7.9c-18.7-11.7-39.7-15.7-60.9-19.3c-12-2-23.3-1.4-34.5,3.4c-18.7,8-38.5,11.4-58.5,14
		c-21.8,2.9-47.9-11.4-58.1-31.9c-16.2-32.5-16.5-65.1-4.5-98.7c6.1-17.1,11.7-34.4,17.6-51.5c3.6-10.6,9.6-20,15.6-29.3
		c11.9-18.7,21.1-39,34.2-57c14.3-19.6,33.2-30.3,57-34.1c12.6-2,25-5,37.8-5.2c19.6-0.3,39.2,2.1,56.4,11.8
		c14,7.9,25.9,19.1,35.1,32.6c4.7,7,9.5,13.8,14.7,20.4c8.8,11.2,15.5,23.6,21.1,36.6c14.4,33.4,26.2,67.7,36.4,102.6
		C438.5,396.1,439.7,407.8,440.1,417.4z M120.9,400.3c0.1,18.1,3.2,33.4,11.6,47.4c7.4,12.3,17.9,19.6,32.7,19.7
		c20.5,0.1,39.8-4.9,58.6-12.5c12.5-5,25.1-7.1,38.4-5.4c7.3,0.9,14.6,2.1,21.7,3.7c15,3.4,30.1,6,43.4,14.9
		c7.7,5.1,17,7.8,25.6,11.6c3.2,1.4,6.5,2,9.8,1.2c7.9-1.7,15.9-3,23.2-6.3c26.2-11.6,36.1-27.9,34.9-52
		c-0.7-14.3-2.9-28.6-7.4-42.5c-9.8-30.8-20.2-61.3-32.5-91.1c-7.4-17.9-19.6-32.8-29.6-49.1c-7.5-12.1-18.7-20-28.2-29.8
		c-0.9-0.9-2.2-1.6-3.4-2.1c-18.5-8.2-37.7-11.3-57.8-8.7c-9.6,1.3-19.1,3.6-28.7,4.7c-13.9,1.6-25.6,7.3-35.5,17
		c-7.7,7.6-13.7,16.5-19.4,25.6c-9.9,15.7-17.6,32.5-25.2,49.3c-3.7,8.2-8.2,16.2-10.9,24.9c-4.7,15.4-9.9,30.6-14.6,46.1
		C124.2,378.5,119.9,389.9,120.9,400.3z"/>
	<path class="st0" d="M384.8,189.9c-0.4-6.9,1.1-14.3,5-20.6c9.9-15.7,16-33.3,24.9-49.5c8.5-15.5,20.2-26.9,38.5-29.3
		c16.6-2.2,31.3,3,42.6,15.1c12.7,13.5,15.8,29.5,10,47.7c-4.3,13.4-10.1,25.4-19.8,35.7c-6.9,7.3-13.1,15.3-19.2,23.3
		c-11.1,14.3-26.3,20.3-43.5,22.2c-7.4,0.8-13.7-1.7-19.2-6.9c-4.9-4.6-9.3-9.7-13.4-15.1C386,206.4,384.7,201.1,384.8,189.9z
		 M490.1,137.6c0-11.6-4.7-19.3-12.3-23.9c-17.2-10.4-34.1-8.2-45.4,9c-9.8,15-16.8,31.3-23.7,47.7c-2.1,4.9-3.9,10.1-5,15.3
		c-3,13.2,8.6,29.4,20.8,28.8c10.5-0.5,19.8-4.7,26.2-13c8.5-10.8,17-21.5,26.2-31.8C485.6,160.2,487.8,147.8,490.1,137.6z"/>
	<path class="st0" d="M88.8,88c-0.2-20.5,12.2-32.8,28.7-41.3c13.4-6.9,27.7-8.2,41.2,0.5c6.8,4.4,12.3,10.5,17,17
		c10.6,14.7,20.4,29.9,26.7,47.2c5,13.7,6.2,27.3,1.6,41.4c-2.2,6.7-5.4,12.3-10.9,16.5c-5.9,4.4-11.8,8.9-18.3,12.4
		c-11.2,6.1-21.8,5-33-2.2c-16.6-10.7-28.2-26.2-38.9-41.6C93.1,123.6,89.2,106,88.8,88z M106.8,96.6c0.7,9.4,4.6,23.6,12.9,36
		c6.9,10.3,15.4,19.4,24.8,27.6c10.9,9.6,15.2,10.1,27.4,2c1.1-0.7,2.2-1.5,3.3-2.3c12.2-8.3,16.6-19.3,12.7-34
		c-6.3-23.9-19.4-43.9-36.2-61.7c-4.6-4.9-10.3-5.9-16.6-5.3C119.2,60.7,106.6,74.9,106.8,96.6z"/>
	<path class="st0" d="M261.4,81.4c-0.7-4.6-0.4-12.3,0.1-20.1c0.4-6.2,2-12,5.3-17.2c14.7-23.4,35.6-34.9,62.5-31.8
		c15.1,1.7,25.8,11.9,29,28c5.4,27.2,3.8,54.2-5.3,80.6c-2.7,7.9-8,14-14.2,19.2c-7.8,6.5-16.6,11.5-26.1,14.9c-8.6,3-17,2-25.2-2.4
		c-14.5-7.8-21.8-20-23.3-36C263.1,106,262.5,95.2,261.4,81.4z M278,77.6c-0.8,12.8,0.9,25.4,4.1,37.8c1.9,7.5,6.2,13.3,11.6,18.4
		c3.3,3.1,7.7,5.3,12,3.5c13.3-5.6,26.5-11.3,31.2-27.3c6.3-21.3,7.7-42.8,3.5-64.5c-1.2-6.2-3.7-11.7-11.2-13.9
		c-24.6-7.2-51,11.6-51.1,36.9C277.9,71.5,278,74.6,278,77.6z"/>
	<path class="st0" d="M3.1,220.4c-1.8-28.3,24-58.2,50.5-54.6c4.7,0.6,9.2,1.9,13.4,4.1c24.8,12.9,42.1,33.2,53.7,58
		c5.5,11.8,9,24.7,4,38.1c-2.6,7.2-6.5,13.3-13.5,16.9c-3.4,1.7-5.9,4.4-8.8,6.7c-7.1,5.6-14.9,7.7-23.5,4.2
		c-15.5-6.3-32.1-10.3-44.9-21.8C16.2,256.1,5.1,236.3,3.1,220.4z M20,213.5c-0.8,5.7,1.6,12,4.6,18c2.7,5.4,5.9,10.5,8.9,15.8
		c5.4,9.3,13.2,16.4,22.9,20.4c9,3.7,17.9,7.5,26.7,11.6c6.7,3,15.1-0.2,19-6.4c7.9-12.4,8.7-25.6,2.3-38.3
		c-10.4-20.7-24.7-38.3-45.2-50c-2.7-1.5-5.5-2.4-8.6-2.5C35.5,181.9,20,197,20,213.5z"/>
	<path class="st1" d="M120.9,400.3c-0.9-10.4,3.3-21.9,6.8-33.4c4.6-15.4,9.9-30.6,14.6-46.1c2.7-8.8,7.2-16.7,10.9-24.9
		c7.6-16.8,15.4-33.6,25.2-49.3c5.7-9.1,11.7-18.1,19.4-25.6c9.9-9.7,21.6-15.4,35.5-17c9.6-1.1,19.1-3.5,28.7-4.7
		c20-2.6,39.3,0.5,57.8,8.7c1.2,0.5,2.5,1.2,3.4,2.1c9.5,9.8,20.7,17.7,28.2,29.8c10,16.3,22.2,31.2,29.6,49.1
		c12.3,29.8,22.7,60.3,32.5,91.1c4.4,13.9,6.7,28.2,7.4,42.5c1.2,24.1-8.6,40.4-34.9,52c-7.4,3.3-15.4,4.6-23.2,6.3
		c-3.4,0.7-6.7,0.1-9.8-1.2c-8.6-3.8-17.9-6.5-25.6-11.6c-13.4-8.9-28.4-11.5-43.4-14.9c-7.2-1.6-14.4-2.8-21.7-3.7
		c-13.2-1.7-25.9,0.4-38.4,5.4c-18.8,7.5-38.1,12.6-58.6,12.5c-14.9-0.1-25.4-7.4-32.7-19.7C124.1,433.8,121,418.4,120.9,400.3z"/>
	<path class="st1" d="M490.1,137.6c-2.3,10.2-4.6,22.6-13.2,32.2c-9.2,10.2-17.8,20.9-26.2,31.8c-6.5,8.3-15.7,12.5-26.2,13
		c-12.1,0.6-23.8-15.6-20.8-28.8c1.2-5.2,3-10.4,5-15.3c6.9-16.4,13.8-32.7,23.7-47.7c11.4-17.3,28.3-19.4,45.4-9
		C485.4,118.2,490.1,125.9,490.1,137.6z"/>
	<path class="st1" d="M106.8,96.6c-0.3-21.8,12.3-36,28.3-37.6c6.3-0.6,12,0.4,16.6,5.3c16.8,17.8,29.9,37.8,36.2,61.7
		c3.9,14.7-0.5,25.7-12.7,34c-1.1,0.8-2.2,1.5-3.3,2.3c-12.2,8-16.5,7.5-27.4-2c-9.4-8.2-17.9-17.3-24.8-27.6
		C111.4,120.3,107.5,106,106.8,96.6z"/>
	<path class="st1" d="M278,77.6c0-3,0-6,0-9.1c0.2-25.3,26.6-44.1,51.1-36.9c7.5,2.2,10.1,7.8,11.2,13.9c4.2,21.7,2.8,43.2-3.5,64.5
		c-4.7,16-17.9,21.7-31.2,27.3c-4.3,1.8-8.7-0.4-12-3.5c-5.4-5.1-9.7-10.9-11.6-18.4C278.9,103,277.2,90.4,278,77.6z"/>
	<path class="st1" d="M20,213.5c0.1-16.5,15.5-31.6,30.6-31.4c3.1,0,5.9,0.9,8.6,2.5c20.5,11.7,34.8,29.3,45.2,50
		c6.4,12.7,5.6,25.9-2.3,38.3c-3.9,6.2-12.4,9.4-19,6.4c-8.8-4-17.8-7.8-26.7-11.6c-9.7-4-17.5-11.1-22.9-20.4
		c-3-5.2-6.2-10.4-8.9-15.8C21.5,225.5,19.2,219.2,20,213.5z"/>
</g>
</svg>
