<?xml version="1.0" encoding="utf-8"?>
<!-- Generator: Adobe Illustrator 27.0.0, SVG Export Plug-In . SVG Version: 6.00 Build 0)  -->
<svg version="1.1" id="Capa_1" xmlns="http://www.w3.org/2000/svg" xmlns:xlink="http://www.w3.org/1999/xlink" x="0px" y="0px"
	 viewBox="0 0 64 64" style="enable-background:new 0 0 64 64;" xml:space="preserve">
<style type="text/css">
	.st0{fill:none;}
	.st1{fill-rule:evenodd;clip-rule:evenodd;fill:#8A5158;}
	.st2{fill-rule:evenodd;clip-rule:evenodd;fill:#EF7879;}
	.st3{fill-rule:evenodd;clip-rule:evenodd;fill:#FEFDFD;}
	.st4{fill-rule:evenodd;clip-rule:evenodd;fill:#D36E6E;}
</style>
<g>
	<path class="st0" d="M0,0"/>
	<path class="st0" d="M0,0"/>
	<path class="st0" d="M0,0"/>
	<path class="st0" d="M0,0"/>
	<path class="st0" d="M0,0"/>
	<path class="st0" d="M0,0"/>
	<path class="st0" d="M0,0"/>
	<path class="st0" d="M0,0"/>
	<path class="st0" d="M0,0"/>
	<path class="st0" d="M0,0"/>
	<path class="st0" d="M0,0"/>
	<path class="st0" d="M0,0"/>
</g>
<g>
	<path class="st1" d="M15.2,53.5c-0.3,0.1-0.5,0.4-0.6,0.6c-0.2,0.2-0.3,0.4-0.5,0.6c0.3,0.4,0.6,0.7,0.8,1.1
		c1.3,1.6,1.6,3.5,1.1,5.4c-0.2,0.7-0.7,1.3-1.4,1.6c-1.3,0.6-2.7,0.5-4.1,0.1c-2.7-1-4.5-3.2-6.2-5.4c-0.9-1.2-1.6-2.5-2-4
		C2,52.3,1.9,51,2.5,49.8C2.7,49.3,3,49,3.4,48.7c1.2-0.7,2.5-0.9,3.8-0.5c1.1,0.3,2,1,2.9,1.6c0.2,0.1,0.3,0.3,0.5,0.4
		c0.2,0.1,0.4,0.5,0.7,0.2c0.3-0.3-0.1-0.5-0.2-0.7c-1.7-2.2-1.7-4.7,0.1-6.7c2.3-2.5,4.4-5.2,6.9-7.5c0.1-0.1,0.2-0.2,0.3-0.3
		c3.2-4.1,7.3-7.3,10.8-11.1c0.7-0.7,1.4-1.4,2.1-2.2c1.6-1.8,3.5-3.3,5.3-5c0.9-0.8,1.7-1.6,2.6-2.4c0.6-0.5,1.3-0.8,2.1-0.6
		c0.5,0.1,0.8,0,1.1-0.4c0.1-0.2,0.3-0.4,0.4-0.6c1.1-1.6,2.8-1.6,4.3-0.9c1,0.5,1,0.5,1.9-0.2c0.5-0.5,1-1,1.4-1.5
		c0.8-1,1.7-2,2.8-2.9c1.1-0.9,2-2,2.9-3c0.7-0.8,1.5-1.5,2.3-2.1c0.5-0.5,1.1-0.8,1.9-0.4c0.9,0.4,1.6,1,1.8,2
		c0.1,0.5-0.1,1-0.5,1.4c-0.9,1-1.7,2.1-2.7,3.1c-2.1,2.4-4.3,4.7-6.6,6.9c-0.8,0.8-0.7,0.7-0.2,1.5c0.4,0.6,0.7,1.2,1,1.8
		c0.4,0.8,0.3,1.5-0.2,2.1c-0.4,0.5-0.8,1-1.2,1.4c-0.2,0.3-0.3,0.5-0.2,0.8c0.2,0.7,0,1.3-0.5,1.9c-1.1,1.4-2.4,2.6-3.6,3.9
		c-0.4,0.4-0.8,0.8-1.1,1.2c-1.1,1.3-2.2,2.5-3.5,3.6c-2.3,1.9-4.2,4-6.4,6c-1.6,1.5-3.1,3.1-4.8,4.5c-1.7,1.4-3.1,3.1-4.5,4.8
		c-0.2,0.3-0.4,0.6-0.7,0.8c-2,2-4.2,3.8-6.8,5.1c-1.2,0.6-2.3,0.6-3.4-0.3C15.9,54,15.5,53.8,15.2,53.5z M13.4,42.8
		c1.8,0.1,3.1,0.9,4.2,2c1.7,1.7,3.4,3.4,4.4,5.6c0.1,0.3,0.3,0.6,0.7,0.2c1.1-1,2.4-1.9,3.3-3.2c1-1.3,2.1-2.5,3.2-3.7
		c1.4-1.4,3-2.6,4.4-4c1.7-1.8,3.6-3.3,5.4-5.1c0.5-0.5,1.1-1,1.7-1.5c1.5-1.2,2.9-2.5,4.1-4c0.8-0.9,0.9-1.4,0.3-2.5
		c-0.1-0.2-0.2-0.4-0.3-0.5C44,25,43,24.1,42,23.2c-1.7-1.4-3.6-2.5-5.8-2.8c-0.7-0.1-1.4,0-1.9,0.6c-0.2,0.2-0.5,0.4-0.6,0.7
		c0,0.2,0.2,0.3,0.4,0.4c0.9,0.6,1.6,1.5,2.3,2.3c0.3,0.4,0.3,0.9,0,1.1c-0.4,0.3-0.8,0.3-1.1-0.1c-0.2-0.2-0.4-0.4-0.6-0.7
		c-0.5-0.6-0.9-1.1-1.5-1.6c-0.3-0.3-0.6-0.3-0.9,0c-0.6,0.6-1.2,1.3-1.7,2c0.3,0.2,0.5,0.4,0.8,0.6c0.2,0.2,0.4,0.4,0.4,0.7
		c0.1,0.4,0,0.7-0.3,0.9c-0.3,0.2-0.6,0.1-0.8-0.2c-0.2-0.3-0.5-0.5-0.8-0.7c-0.2-0.2-0.4-0.2-0.6,0c-0.5,0.5-0.9,0.9-1.4,1.4
		c-0.2,0.2-0.2,0.4,0,0.5c0.3,0.2,0.5,0.4,0.6,0.7c0.1,0.3,0.1,0.7-0.2,0.9c-0.3,0.2-0.6,0.1-0.9-0.1c-0.2-0.1-0.4-0.3-0.5-0.5
		c-0.2-0.2-0.4-0.2-0.6,0c-0.8,0.8-1.7,1.6-2.5,2.6c0.6,0.3,1.2,0.6,1.7,0.9c0.5,0.3,1,0.5,1.3,1c0.3,0.3,0.3,0.7,0,1
		c-0.3,0.3-0.7,0.4-1,0.1c-0.4-0.3-0.9-0.7-1.4-1C22.4,33,22.4,33,21,34.7c-0.3,0.4-0.5,0.7,0,1c0.2,0.1,0.4,0.4,0.5,0.6
		c0.2,0.3,0.2,0.6-0.1,0.8c-0.3,0.3-0.6,0.3-0.9,0.1c-0.2-0.2-0.4-0.4-0.6-0.6c-0.2-0.2-0.4-0.3-0.6,0c-0.7,0.6-1.3,1.3-2,2
		c0.6,0.4,1.3,0.6,1.6,1.1c0.2,0.3,0.3,0.6,0.1,0.9c-0.2,0.3-0.5,0.4-0.8,0.2c-0.2-0.1-0.4-0.2-0.5-0.3c-0.4-0.2-0.7-0.4-1.1-0.5
		c-0.3-0.1-0.6-0.1-0.8,0.2C15,41.1,14.2,41.8,13.4,42.8z M12.4,61.3c1.5,0.1,1.9-0.3,1.9-1.7c0-1-0.3-1.9-0.9-2.7
		c-0.8-1.1-1.8-2-2.7-2.9c-1-1.2-2.2-2.2-3.2-3.4c-0.6-0.7-1.9-0.8-2.8-0.4c-0.9,0.4-0.8,1.2-0.8,2c0.1,1,0.5,2,0.9,2.9
		c1,1.9,2.4,3.4,4.1,4.8C10,60.7,11.1,61.3,12.4,61.3z M47.3,26.5c0.7-0.5,1.3-1.2,1.8-1.8c0.5-0.5,0.5-1,0.2-1.6
		c-0.8-1.8-1.9-3.5-3.1-5.1c-0.3-0.4-0.8-0.8-1.2-1c-1.1-0.5-2.3-1.1-3.5-1.4c-0.4-0.1-0.7-0.1-1,0.1c-1.4,0.8-2.4,2-3.6,3.1
		C41.7,19.7,44.9,22.5,47.3,26.5z M12.9,44.5c-0.3,0.1-0.9-0.2-1.1,0.4c-0.5,1-0.5,2.1,0.1,3.1c0.6,0.9,0.9,0.9,1.7,0.2
		c0.6-0.6,0.8-0.6,1.6-0.2c0.8,0.4,1.4,1,1.8,1.8c0.3,0.5,0.2,0.9,0,1.4c-0.5,0.8-0.4,0.7,0.3,1.3c0.7,0.6,1.5,0.6,2.4,0
		c0.4-0.2,0.5-0.6,0.4-1c-0.1-0.3-0.2-0.5-0.3-0.8c-0.3-0.9-1.1-1.5-1.6-2.3c-0.6-0.8-1.2-1.7-2-2.4C15.2,45.3,14.3,44.4,12.9,44.5z
		 M50.8,14.6c1.1-1.2,2.3-2.2,3.4-3.3c1.4-1.4,2.7-2.9,4-4.4c0.7-0.8,1.4-1.6,2.1-2.5c0.2-0.3,0.3-0.5,0-0.8c-0.3-0.3-0.6-0.4-1-0.1
		c-0.7,0.6-1.5,1.3-2.1,2c-0.8,0.9-1.6,1.9-2.5,2.6c-1.9,1.6-3.3,3.7-5.3,5.3C49.9,13.8,50.4,14.2,50.8,14.6z M43.6,14.3
		c1.5,0.6,3.1,1.1,4.2,2.3c1.1,1.2,2,2.5,2.8,3.9c0.3,0,0.4-0.2,0.5-0.3c0.7-0.8,0.7-0.8,0.2-1.8c-1-2-2.5-3.6-4.4-4.9
		C45.5,12.6,44.8,12.8,43.6,14.3z M13.1,53.3c0.2-0.1,0.3-0.2,0.4-0.2c0.6-0.7,1.2-1.3,1.8-2c0.2-0.2,0.5-0.4,0.3-0.8
		c-0.2-0.4-0.5-0.9-0.9-1.1c-0.2-0.1-0.3,0.1-0.4,0.2c-0.3,0.4-0.7,0.8-1,1.2c-0.3,0.4-0.9,0.8-0.9,1.2
		C12.2,52.3,12.8,52.7,13.1,53.3z"/>
	<path class="st1" d="M12.3,22.3c-1.7,0-3-0.3-4.1-1.5c-0.3-0.4-0.7-0.7-0.8-1.2C7,17.8,7.1,16,8.5,14.5c1.1-1.2,2.6-1.9,4-2.5
		c2.6-1.2,5.3-2.1,8-2.9c1.2-0.4,2.4-0.5,3.7-0.3c2.4,0.3,3.3,1.5,3.2,4.3c-0.1,1-0.5,2-1.2,2.9c-1.2,1.6-2.8,2.8-4.6,3.7
		c-2.1,1-4.3,1.5-6.5,2.3C14.1,22,13.2,22.4,12.3,22.3z M12.1,20.5c0.5,0.1,1-0.1,1.5-0.2c1.2-0.3,2.4-0.8,3.5-1.2
		c1-0.3,1.4-0.8,1.4-1.8c-0.1-1.6-0.7-3-1.7-4.3c-0.4-0.4-0.7-0.6-1.2-0.4c-1,0.4-2.1,0.7-3.1,1.1c-1.1,0.5-2.1,1.1-2.9,2
		c-0.8,0.9-0.8,2.8-0.2,3.7C10.1,20.3,11,20.5,12.1,20.5z M17.7,11.9c1.8,1.7,2.6,3.6,2.6,6c2.1-0.8,3.6-2,4.8-3.8
		c0.2-0.4,0.4-0.8,0.5-1.3c0.3-1.5-0.2-2.3-1.8-2.4c-0.3,0-0.6,0-0.8,0C21.2,10.6,19.6,11.3,17.7,11.9z"/>
	<path class="st1" d="M44.6,53.1c-1.5,0.1-2.8-0.3-3.8-1.5c-1-1.2-1.2-2.4-0.4-3.8c0.7-1.3,1.7-2.4,2.8-3.4c1.3-1.3,2.9-2.3,4.5-3.2
		c0.9-0.5,1.8-1,2.8-1.5c1.7-0.8,3.5-1,5.3-0.5c1.9,0.5,3,2.4,2.7,4.5c-0.2,1.4-0.8,2.5-1.8,3.5c-2.2,2.1-4.8,3.6-7.6,4.7
		c-0.4,0.2-0.8,0.4-1.2,0.6C46.7,52.9,45.7,53.2,44.6,53.1z M44.8,51.2c0.5,0,1,0,1.5-0.3c1.1-0.4,2.2-0.9,3.3-1.4
		c0.6-0.2,0.8-0.7,0.7-1.3c-0.1-1.9-1-3.3-2.2-4.6c-0.3-0.4-0.6-0.4-1-0.2c-2.4,1-3.9,3-5.3,5.1c-0.3,0.5-0.2,1,0.2,1.5
		C42.7,51.1,43.7,51.1,44.8,51.2z M52.2,48c1.3-0.5,2-1.4,3-2.2c1-0.8,1.4-1.9,1.3-3.2c-0.1-0.8-0.9-1.5-1.7-1.6
		c-2-0.2-3.7,0.4-5.4,1.6C51,44,52.1,45.7,52.2,48z"/>
	<path class="st2" d="M13.4,42.8c0.8-1,1.7-1.7,2.3-2.5c0.2-0.3,0.5-0.3,0.8-0.2c0.4,0.1,0.8,0.3,1.1,0.5c0.2,0.1,0.4,0.2,0.5,0.3
		c0.3,0.2,0.6,0,0.8-0.2c0.2-0.3,0.1-0.6-0.1-0.9c-0.4-0.5-1-0.7-1.6-1.1c0.6-0.8,1.3-1.4,2-2c0.2-0.2,0.5-0.1,0.6,0
		c0.2,0.2,0.4,0.4,0.6,0.6c0.3,0.3,0.6,0.2,0.9-0.1c0.3-0.2,0.3-0.5,0.1-0.8c-0.2-0.2-0.3-0.5-0.5-0.6c-0.5-0.4-0.3-0.6,0-1
		c1.4-1.7,1.4-1.7,3.2-0.5c0.5,0.3,0.9,0.6,1.4,1c0.4,0.3,0.7,0.2,1-0.1c0.3-0.3,0.3-0.7,0-1c-0.3-0.5-0.8-0.7-1.3-1
		c-0.5-0.3-1.1-0.6-1.7-0.9c0.8-1,1.7-1.7,2.5-2.6c0.2-0.2,0.4-0.2,0.6,0c0.2,0.2,0.3,0.3,0.5,0.5c0.3,0.2,0.6,0.3,0.9,0.1
		c0.3-0.2,0.3-0.6,0.2-0.9c-0.1-0.3-0.3-0.5-0.6-0.7c-0.2-0.2-0.2-0.3,0-0.5c0.5-0.5,0.9-0.9,1.4-1.4c0.2-0.2,0.4-0.2,0.6,0
		c0.3,0.2,0.5,0.4,0.8,0.7c0.2,0.2,0.5,0.4,0.8,0.2c0.4-0.2,0.4-0.5,0.3-0.9c-0.1-0.3-0.2-0.5-0.4-0.7c-0.2-0.2-0.5-0.4-0.8-0.6
		c0.5-0.7,1.1-1.4,1.7-2c0.3-0.3,0.6-0.3,0.9,0c0.6,0.5,1,1,1.5,1.6c0.2,0.2,0.4,0.5,0.6,0.7c0.4,0.3,0.8,0.3,1.1,0.1
		c0.3-0.2,0.3-0.8,0-1.1c-0.7-0.8-1.4-1.6-2.3-2.3c-0.1-0.1-0.3-0.2-0.4-0.4c0.1-0.3,0.4-0.4,0.6-0.7c0.5-0.6,1.1-0.7,1.9-0.6
		c2.3,0.2,4.1,1.3,5.8,2.8c1,0.9,2.1,1.8,2.8,2.9c0.1,0.2,0.2,0.3,0.3,0.5c0.6,1.1,0.5,1.6-0.3,2.5c-1.3,1.4-2.7,2.7-4.1,4
		c-0.6,0.5-1.2,1-1.7,1.5c-1.8,1.7-3.6,3.3-5.4,5.1c-1.4,1.4-3,2.6-4.4,4c-1.2,1.2-2.3,2.4-3.2,3.7c-0.9,1.3-2.2,2.2-3.3,3.2
		c-0.4,0.3-0.6,0.1-0.7-0.2c-0.9-2.3-2.7-4-4.4-5.6C16.5,43.7,15.2,42.8,13.4,42.8z"/>
	<path class="st3" d="M12.4,61.3c-1.3,0-2.4-0.6-3.4-1.5c-1.6-1.4-3.1-2.9-4.1-4.8C4.4,54.1,4,53.2,4,52.1c-0.1-0.8-0.1-1.6,0.8-2
		c0.9-0.4,2.2-0.3,2.8,0.4c1,1.2,2.2,2.2,3.2,3.4c0.9,1,1.8,1.9,2.7,2.9c0.6,0.8,0.9,1.7,0.9,2.7C14.3,61,13.9,61.4,12.4,61.3z"/>
	<path class="st3" d="M47.3,26.5c-2.4-4-5.6-6.8-10.4-7.7c1.2-1.1,2.2-2.3,3.6-3.1c0.3-0.2,0.7-0.2,1-0.1c1.2,0.3,2.3,0.9,3.5,1.4
		c0.5,0.2,0.9,0.6,1.2,1c1.2,1.6,2.3,3.2,3.1,5.1c0.3,0.6,0.2,1.1-0.2,1.6C48.6,25.3,48,26,47.3,26.5z"/>
	<path class="st4" d="M12.9,44.5c1.4-0.1,2.3,0.8,3.2,1.5c0.8,0.7,1.4,1.5,2,2.4c0.6,0.7,1.3,1.4,1.6,2.3c0.1,0.3,0.2,0.5,0.3,0.8
		c0.1,0.4,0,0.8-0.4,1c-0.9,0.5-1.7,0.5-2.4,0c-0.7-0.6-0.8-0.6-0.3-1.3c0.3-0.5,0.3-0.9,0-1.4c-0.4-0.8-1-1.4-1.8-1.8
		c-0.8-0.4-0.9-0.4-1.6,0.2c-0.8,0.7-1.1,0.7-1.7-0.2c-0.6-1-0.6-2.1-0.1-3.1C12.1,44.3,12.6,44.6,12.9,44.5z"/>
	<path class="st3" d="M50.8,14.6c-0.5-0.4-0.9-0.7-1.4-1.1c2-1.6,3.3-3.7,5.3-5.3c0.9-0.8,1.7-1.7,2.5-2.6c0.7-0.7,1.4-1.4,2.1-2
		c0.4-0.3,0.7-0.2,1,0.1c0.3,0.3,0.3,0.5,0,0.8c-0.7,0.8-1.4,1.7-2.1,2.5c-1.3,1.5-2.6,3-4,4.4C53.1,12.4,51.9,13.4,50.8,14.6z"/>
	<path class="st3" d="M43.6,14.3c1.2-1.6,1.9-1.7,3.3-0.8c1.9,1.2,3.4,2.8,4.4,4.9c0.5,1,0.5,1-0.2,1.8c-0.1,0.1-0.2,0.3-0.5,0.3
		c-0.8-1.4-1.7-2.7-2.8-3.9C46.7,15.4,45.1,15,43.6,14.3z"/>
	<path class="st3" d="M13.1,53.3c-0.3-0.6-0.9-1-0.8-1.5c0.1-0.4,0.6-0.8,0.9-1.2c0.3-0.4,0.7-0.8,1-1.2c0.1-0.1,0.2-0.3,0.4-0.2
		c0.4,0.2,0.7,0.7,0.9,1.1c0.2,0.4-0.1,0.6-0.3,0.8c-0.6,0.7-1.2,1.3-1.8,2C13.3,53.1,13.3,53.2,13.1,53.3z"/>
	<path class="st2" d="M12.1,20.5c-1.1,0-2.1-0.1-2.7-1c-0.7-0.9-0.6-2.8,0.2-3.7c0.8-0.9,1.8-1.5,2.9-2c1-0.4,2.1-0.7,3.1-1.1
		c0.5-0.2,0.9-0.1,1.2,0.4c1,1.2,1.6,2.6,1.7,4.3c0.1,1-0.3,1.5-1.4,1.8c-1.2,0.3-2.3,0.8-3.5,1.2C13.1,20.4,12.6,20.5,12.1,20.5z"
		/>
	<path class="st3" d="M17.7,11.9c1.9-0.6,3.5-1.3,5.2-1.4c0.3,0,0.6,0,0.8,0c1.5,0.1,2.1,0.9,1.8,2.4c-0.1,0.4-0.2,0.9-0.5,1.3
		c-1.1,1.7-2.7,2.9-4.8,3.8C20.3,15.5,19.5,13.6,17.7,11.9z"/>
	<path class="st3" d="M44.8,51.2c-1.1-0.1-2-0.1-2.7-1c-0.4-0.5-0.5-1-0.2-1.5c1.3-2.1,2.9-4.1,5.3-5.1c0.4-0.2,0.7-0.2,1,0.2
		c1.2,1.3,2.1,2.7,2.2,4.6c0,0.6-0.1,1.1-0.7,1.3c-1.1,0.4-2.2,0.9-3.3,1.4C45.8,51.1,45.2,51.1,44.8,51.2z"/>
	<path class="st2" d="M52.2,48c-0.1-2.3-1.2-4-2.9-5.4c1.7-1.2,3.5-1.8,5.4-1.6c0.8,0.1,1.6,0.8,1.7,1.6c0.1,1.3-0.2,2.4-1.3,3.2
		C54.2,46.6,53.4,47.5,52.2,48z"/>
</g>
</svg>
