<?xml version="1.0" encoding="utf-8"?>
<!-- Generator: Adobe Illustrator 27.0.0, SVG Export Plug-In . SVG Version: 6.00 Build 0)  -->
<svg version="1.1" id="Capa_1" xmlns="http://www.w3.org/2000/svg" xmlns:xlink="http://www.w3.org/1999/xlink" x="0px" y="0px"
	 viewBox="0 0 64 64" style="enable-background:new 0 0 64 64;" xml:space="preserve">
<style type="text/css">
	.st0{fill-rule:evenodd;clip-rule:evenodd;fill:#895057;}
	.st1{fill-rule:evenodd;clip-rule:evenodd;fill:#FFFFFF;}
	.st2{fill-rule:evenodd;clip-rule:evenodd;fill:#FDFCFC;}
	.st3{fill-rule:evenodd;clip-rule:evenodd;fill:#ED7779;}
</style>
<g>
	<path class="st0" d="M1.4,50c0.2-3-0.2-6.1-0.3-9.1C0.9,36.6,1,32.3,1,28c0-2.5-0.1-5-0.2-7.4c-0.1-2.6,0.8-4.4,3.3-5.3
		c1.3-0.5,2.7-0.8,4.1-1c3.1-0.4,6.2-0.2,9.3,0.3c1.9,0.3,1.9,0.3,1.9-1.6c0-1.9,0-3.9,0-5.8c0-1,0.2-2,0.4-3c0.1-0.6,0.4-1.1,1-1.3
		c0.6-0.3,1.2-0.5,1.8-0.5c3.1,0,6.1-0.4,9.2-0.5c1.1,0,2.1,0.2,3.2,0.3c2.4,0.2,4.8,0.1,7.2,0.5c0.3,0,0.5,0.1,0.8,0.1
		c2.3,0.4,2.8,1,3.2,3.3c0.3,2.2,0.1,4.5,0.1,6.7c0,0.7-0.4,1.6,0.1,2.2c0.5,0.4,1.4,0.1,2.1,0.1c3.7,0,7.3,0.4,10.9,0.7
		c2.3,0.2,3.6,1.7,4.2,4c0.3,1.1,0.4,2.2,0.2,3.3c-0.4,3-0.1,5.9-0.2,8.9c0,2.5-0.1,5-0.2,7.6c-0.2,4.3-0.3,8.7-0.2,13
		c0,1.7-0.1,3.5-0.3,5.2c-0.2,1.2-0.7,2.1-1.8,2.7c-1.6,0.9-3.3,1.3-5.1,1.3c-1.3,0-2.5,0-3.8-0.2c-1.9-0.2-3.8-0.3-5.7,0
		c-1.5,0.2-3,0.2-4.5,0.2c-3.7-0.1-7.5,0.2-11.2,0.4c-2.5,0.2-5-0.2-7.5-0.2c-2.1,0-4.2-0.1-6.3-0.2c-2.4,0-4.7-0.2-7-0.6
		c-0.8-0.2-1.7-0.2-2.6-0.3c-1.2-0.1-2.4-0.4-3.5-0.9c-1.1-0.4-1.7-1.2-1.9-2.4c-0.4-1.8-0.4-3.6-0.5-5.4C1.4,51.3,1.4,50.6,1.4,50z
		 M2.7,32.2C2.7,32.2,2.7,32.2,2.7,32.2c0.1,1.3,0,2.7,0.1,4c0.2,3.8-0.1,7.6,0.5,11.4c0.3,2,0.2,4,0.3,6c0.1,0.9,0.2,1.9,0.3,2.8
		C4,57.4,4.5,57.8,5.3,58c1,0.4,2.1,0.4,3.1,0.6c3.5,0.5,7.1,0.9,10.7,0.8c1.2,0,2.4,0.1,3.5,0.1c2.7,0,5.3,0.4,8,0.3
		c4.4-0.3,8.8-0.4,13.2-0.4c0.5,0,1,0,1.4-0.1c1.8-0.3,3.5-0.2,5.3-0.2c1.7,0,3.4,0.4,5.1,0.3c1.4-0.1,2.7-0.3,4-0.9
		c0.7-0.3,1.1-0.8,1.2-1.6c0.1-1.7,0.3-3.3,0.3-5c-0.1-4.1,0-8.3,0.2-12.4c0.2-4.1,0.2-8.1,0.1-12.2c0-1.2,0-2.4,0.2-3.5
		c0.2-1.4,0.2-2.8-0.2-4.1c-0.4-1.5-1-2.1-2.5-2.3c-3.5-0.3-7-0.7-10.5-0.7c-2.5,0-5,0-7.4,0c-1.7,0-3.5-0.2-5.2-0.3
		c-3.3-0.3-6.7-0.3-10,0c-3.1,0.3-6.1,0.4-9.2-0.1c-3.1-0.5-6.2-0.5-9.3-0.1c-0.7,0.1-1.5,0.3-2.1,0.6c-2.4,1.1-2.5,1.2-2.5,3.9
		C2.6,24.5,2.7,28.4,2.7,32.2z M44.2,10.6c0.2-1.8,0.2-3.3-0.1-4.8c-0.2-1.1-0.3-1.2-1.4-1.4c-2.1-0.4-4.2-0.3-6.2-0.5
		c-1.9-0.1-3.7-0.5-5.6-0.4C28.9,3.7,27,3.8,25.1,4c-0.8,0.1-1.7-0.1-2.5,0c-0.8,0.1-1,0.2-1.2,1c-0.2,0.6-0.2,1.2-0.3,1.9
		c0,2.2,0,4.5-0.2,6.7c0,0.2,0,0.3,0,0.5c0,0.4,0.2,0.6,0.6,0.6c1,0,2,0,3.1-0.1c0.9-0.1,0.9-0.1,0.8-1c-0.1-1.1-0.2-2.1-0.1-3.2
		c0-1.5,0.7-2.1,2.1-2.3c3.4-0.5,6.9-0.5,10.4-0.5c1.7,0,2.2,0.6,2.2,2.2c0,1.4,0,2.8,0,4.3c0,0.5,0.1,0.8,0.7,0.8
		c0.9,0,1.8,0,2.7,0c0.6,0,0.8-0.2,0.8-0.8C44.1,12.8,44.2,11.5,44.2,10.6z M34.5,9.4c-2.2,0-4.3,0.1-6.4,0.4
		c-0.7,0.1-0.9,0.4-0.8,1c0,0.9,0,1.8,0,2.7c0,0.6,0.2,0.7,0.8,0.7c2.5-0.2,5,0,7.5,0.2c0.7,0.1,1.3,0.1,2,0.2
		c0.4,0,0.6-0.1,0.6-0.6c0-1.3,0-2.7,0-4c0-0.5-0.2-0.6-0.6-0.6C36.4,9.4,35.4,9.4,34.5,9.4z"/>
	<path class="st1" d="M2.7,32.2c0-3.8,0-7.6,0-11.5c0-2.7,0.1-2.8,2.5-3.9c0.7-0.3,1.4-0.5,2.1-0.6c3.1-0.5,6.2-0.4,9.3,0.1
		c3,0.5,6.1,0.4,9.2,0.1c3.3-0.3,6.7-0.3,10,0c1.7,0.2,3.4,0.3,5.2,0.3c2.5,0,5,0,7.4,0c3.5,0,7,0.4,10.5,0.7
		c1.5,0.1,2.1,0.8,2.5,2.3c0.4,1.4,0.3,2.7,0.2,4.1c-0.1,1.2-0.2,2.4-0.2,3.5c0,4.1,0.1,8.1-0.1,12.2c-0.2,4.1-0.3,8.3-0.2,12.4
		c0,1.7-0.1,3.3-0.3,5c-0.1,0.8-0.5,1.3-1.2,1.6c-1.3,0.6-2.6,0.8-4,0.9c-1.7,0.1-3.4-0.3-5.1-0.3c-1.8,0-3.5-0.1-5.3,0.2
		c-0.5,0.1-0.9,0.1-1.4,0.1c-4.4,0-8.8,0.1-13.2,0.4c-2.7,0.2-5.3-0.3-8-0.3c-1.2,0-2.4-0.1-3.5-0.1c-3.6,0.1-7.1-0.3-10.7-0.8
		c-1-0.1-2.1-0.2-3.1-0.6c-0.8-0.3-1.3-0.7-1.4-1.5c-0.1-0.9-0.2-1.9-0.3-2.8c-0.1-2,0-4.1-0.3-6C2.6,43.8,2.9,40,2.8,36.2
		C2.7,34.9,2.7,33.5,2.7,32.2C2.7,32.2,2.7,32.2,2.7,32.2z M19.8,38.9c0.1,1.8,0.1,3.2,0.1,4.5c0,1.1,0.3,1.5,1.5,1.6
		c0.2,0,0.5,0,0.7,0c1.8,0.2,3.5-0.1,5.3,0c1.1,0,1.1,0,1.1,1.1c0.1,2.2,0.2,4.4,0.4,6.6c0.1,1.4,0.6,1.8,2,1.6c1-0.1,2-0.1,2.9-0.1
		c1.7,0,3.4-0.1,5.1-0.2c0.6,0,1-0.3,1.1-1c0.1-0.7,0.2-1.5,0.2-2.2c-0.1-1.9-0.2-3.8-0.2-5.7c0-1.3,0-1.4,1.4-1.4
		c1.7,0,3.4,0.1,5.1,0.1c1.3,0,1.7-0.3,1.6-1.5c-0.2-2.1-0.1-4.3-0.5-6.4c-0.2-1.5-0.6-1.8-2-1.9c-1.4-0.1-2.9,0.1-4.4-0.2
		c-0.7-0.1-1.6,0.2-2-0.3c-0.4-0.6-0.1-1.4-0.2-2.2c-0.1-1.7-0.1-3.5-0.3-5.2c-0.1-1.1-0.6-1.5-1.7-1.6c-0.4,0-0.9,0-1.3-0.1
		c-2-0.4-4.1-0.1-6.1,0.1c-0.8,0.1-1.2,0.5-1.3,1.3c0,1.7-0.3,3.4-0.2,5.1c0,0.7,0,1.3,0,2c0,0.6-0.2,0.8-0.8,0.8
		c-1.9,0-3.8,0-5.7,0c-1.5,0-1.9,0.3-1.8,1.7C19.9,36.8,19.7,38.1,19.8,38.9z"/>
	<path class="st2" d="M44.2,10.6c0,0.9,0,2.2,0,3.4c0,0.6-0.2,0.8-0.8,0.8c-0.9,0-1.8,0-2.7,0c-0.6,0-0.7-0.3-0.7-0.8
		c0-1.4,0-2.8,0-4.3c0-1.6-0.5-2.2-2.2-2.2c-3.5,0-6.9,0-10.4,0.5c-1.4,0.2-2.1,0.9-2.1,2.3c0,1.1,0.1,2.1,0.1,3.2c0,0.9,0,1-0.8,1
		c-1,0.1-2,0-3.1,0.1c-0.4,0-0.6-0.2-0.6-0.6c0-0.2,0-0.3,0-0.5c0.2-2.2,0.2-4.5,0.2-6.7c0-0.6,0.1-1.3,0.3-1.9c0.2-0.8,0.4-1,1.2-1
		c0.8-0.1,1.6,0.1,2.5,0c1.9-0.2,3.8-0.3,5.8-0.4c1.9-0.1,3.8,0.2,5.6,0.4c2.1,0.1,4.2,0,6.2,0.5c1.1,0.2,1.2,0.3,1.4,1.4
		C44.3,7.2,44.4,8.7,44.2,10.6z"/>
	<path class="st0" d="M19.8,38.9c-0.1-0.8,0.1-2,0.1-3.3c0-1.5,0.4-1.8,1.8-1.7c1.9,0,3.8,0,5.7,0c0.6,0,0.9-0.2,0.8-0.8
		c0-0.7,0-1.3,0-2c-0.1-1.7,0.2-3.4,0.2-5.1c0-0.8,0.4-1.2,1.3-1.3c2-0.2,4.1-0.5,6.1-0.1c0.4,0.1,0.9,0.1,1.3,0.1
		c1.1,0.1,1.6,0.5,1.7,1.6c0.1,1.7,0.2,3.5,0.3,5.2c0,0.7-0.2,1.6,0.2,2.2c0.4,0.5,1.3,0.2,2,0.3c1.4,0.3,2.9,0,4.4,0.2
		c1.5,0.1,1.8,0.4,2,1.9c0.3,2.1,0.2,4.2,0.5,6.4c0.1,1.2-0.3,1.6-1.6,1.5c-1.7-0.1-3.4-0.1-5.1-0.1c-1.4,0-1.4,0-1.4,1.4
		c0,1.9,0.1,3.8,0.2,5.7c0,0.8,0,1.5-0.2,2.2c-0.1,0.6-0.5,1-1.1,1c-1.7,0.1-3.4,0.2-5.1,0.2c-1,0-2,0-2.9,0.1
		c-1.4,0.2-1.9-0.2-2-1.6c-0.2-2.2-0.3-4.4-0.4-6.6c0-1.1-0.1-1.1-1.1-1.1c-1.8-0.1-3.5,0.2-5.3,0c-0.2,0-0.5,0-0.7,0
		c-1.1-0.1-1.5-0.4-1.5-1.6C19.9,42,19.9,40.7,19.8,38.9z M30.8,52.4c0.6,0,1.1-0.1,1.6-0.1c1.7,0.1,3.3-0.3,4.9-0.2
		c0.5,0,0.8-0.2,0.7-0.7c-0.1-1.6,0.1-3.1-0.1-4.7c-0.2-1.2-0.2-2.3,0.1-3.5c0.1-0.6,0.5-1.1,1-1.2c1-0.2,2-0.4,2.9-0.3
		c0.9,0.1,1.8,0.1,2.7,0.1c1.2,0,1.2,0,1.2-1.3c-0.1-0.9-0.2-1.9-0.2-2.8c0-1.7-0.1-1.8-1.8-1.8c-0.1,0-0.2,0-0.4,0
		c-1.6,0.4-3.2-0.1-4.8-0.1c-1.3,0-1.8-0.7-1.8-2c0-2,0-3.9,0-5.9c0-0.3,0-0.6-0.1-0.9c-0.1-0.3-0.2-0.5-0.6-0.5
		c-1.8-0.2-3.7-0.4-5.5,0c-0.3,0.1-0.4,0.2-0.5,0.5c-0.1,0.7-0.2,1.5-0.2,2.2c0,1.8-0.3,3.6-0.5,5.4c-0.1,0.5-0.3,1-0.9,1.1
		c-0.9,0-1.7,0.3-2.6,0.2c-1-0.1-2.1-0.1-3.2,0c-1.1,0.1-1.1,0-1.1,1.2c0,1.5,0,2.9,0.2,4.4c0.2,1.7,0.1,1.7,1.8,1.7
		c0.3,0,0.6,0,0.8,0c1.3,0,2.7,0,4,0c1.1,0,1.5,0.4,1.8,1.5c0.1,0.5,0.1,1,0.1,1.5C30.5,48.1,30.4,50.2,30.8,52.4z"/>
	<path class="st3" d="M30.8,52.4c-0.4-2.1-0.4-4.2-0.4-6.3c0-0.5,0-1-0.1-1.5c-0.3-1.1-0.6-1.5-1.8-1.5c-1.3,0-2.7,0-4,0
		c-0.3,0-0.6,0-0.8,0c-1.7,0-1.6,0-1.8-1.7c-0.2-1.5-0.2-2.9-0.2-4.4c0-1.1,0-1.1,1.1-1.2c1.1-0.1,2.1-0.1,3.2,0
		c0.9,0.1,1.7-0.2,2.6-0.2c0.6,0,0.9-0.5,0.9-1.1c0.2-1.8,0.5-3.6,0.5-5.4c0-0.8,0.1-1.5,0.2-2.2c0-0.3,0.2-0.5,0.5-0.5
		c1.8-0.4,3.7-0.2,5.5,0c0.3,0,0.5,0.2,0.6,0.5c0.1,0.3,0.1,0.6,0.1,0.9c0,2,0,3.9,0,5.9c0,1.3,0.5,2,1.8,2c1.6,0,3.2,0.5,4.8,0.1
		c0.1,0,0.2,0,0.4,0c1.7,0.1,1.8,0.1,1.8,1.8c0,0.9,0.1,1.9,0.2,2.8c0.1,1.3,0,1.3-1.2,1.3c-0.9,0-1.8,0-2.7-0.1
		c-1-0.1-2,0.1-2.9,0.3c-0.6,0.1-0.9,0.5-1,1.2c-0.3,1.2-0.3,2.4-0.1,3.5c0.2,1.6,0.1,3.1,0.1,4.7c0,0.5-0.3,0.7-0.7,0.7
		c-1.6,0-3.3,0.4-4.9,0.2C31.9,52.2,31.4,52.3,30.8,52.4z"/>
</g>
</svg>
