<svg id="eY37IKGdORy1" xmlns="http://www.w3.org/2000/svg" xmlns:xlink="http://www.w3.org/1999/xlink" viewBox="0 0 480 397" shape-rendering="geometricPrecision" text-rendering="geometricPrecision" project-id="91c96a076e6f46fe9e4dca3b1f4f284d" export-id="2c0d0662b1a544baab370e592ac7acaf" cached="false"><rect width="504.5" height="529.6" rx="0" ry="0" transform="translate(-18-132)" fill="none"/><path d="M470.4,529.5c-18.5,0-37.1,0-55.6,0c2-3,3.8-6.2,6.2-8.9c3.2-3.4,5.1-7,4.3-11.7.4-5.3,1-10.5,1.3-15.8c1.2-20.8,2.3-41.6,3.4-62.4c0-.9-.7-1.8-1.1-2.7-.5-.2-1-.6-1.5-.7-15.4-3.3-31.1-4.9-46.8-5.4-7-.2-14,.7-21,1.2-8,.6-16,1.4-24,2.2-14.1,1.5-28.3,3.1-42.4,4.7-5.5.6-11,1-16.5,1.6-1.9.2-3.6.6-3.7,3.4-.2,4.7-1.1,9.3-1.6,14-1,9.1-2,18.2-3,27.4-1.1,9.2-2.3,18.4-3.4,27.7-.5,3.4-1.1,6.8-1.4,10.1-.1,1,.5,2.1,1,3.1c2.1,4.1,4.3,8.2,6.5,12.3-16.2,0-32.3,0-48.5,0-.1-7.9-.1-15.7-.2-23.6c0-7.5,0-15,0-22.5.1-11.3.2-22.6.1-33.8c0-.8-1.1-2.2-1.7-2.2-6.7-.4-13.3-.5-20-.8-1.8-.1-2.5.7-2.4,2.5c0,2.1,0,4.1-.1,6.2-.6,9.6-1.2,19.2-1.8,28.8-.5,8-.9,16-1.4,24-.5,7.2-1,14.3-1.5,21.5-15.5,0-30.9,0-46.4,0c1.9-1.4,3.7-3.2,5.8-4.1c3.9-1.7,5.2-4.8,5.8-8.5.2-1.6.4-3.1.7-4.7c1.9-14.8-1.3-29.1-3.7-43.5-4.8-28.7-9.9-57.3-14.9-86-1.4-8-2.9-16.1-4.3-24.1c7.1,4.2,14.1,8.8,21.5,12.4c6.1,3,9.5,6.7,8.1,13.7-3.7,1.9-7.9,3.3-11.1,5.9-7.6,6-9.3,17.3-4.7,26.4c4.5,8.8,14.5,13.5,24.4,11.5c9.5-2,16.9-10.7,17.5-20.2.6-10-5.6-20.3-17.6-23.4c0-1.5.2-3,0-4.5-.5-3.2.9-4.9,3.8-6.4c9.3-4.7,18.5-9.8,27.7-14.7c13.1-7,26.2-13.9,39.3-20.8c1.3,1,2.6,1.9,3.8,2.9c7.5,6.4,15.9,10.9,25.5,13.2c12.2,3,24.4,2.6,36.6.6c19-3.1,35.5-10.8,48.4-25.6.5-.5,1.9-.7,2.6-.3c3.3,1.4,6.3,3.3,9.7,4.4c10.7,3.7,21.4,1.9,31.8-1.5c7.1-2.3,13.7-5.7,19-11c7.5-7.5,11.1-16.8,11-27.4c7.2.3,14.5.6,21.7,1c1.9.1,3.1-.2,4.3-1.9c11.9-16.3,23.9-32.4,35.9-48.6.5-.7,1.1-1.5,2.4-2-.4,4.6-.7,9.1-1.2,13.7-1.5,16-3,32.1-4.6,48.1-1.6,15.9-3.2,31.8-4.8,47.7-2.8,3-5.8,5.8-8.2,9.1-14.1,19.4-20.2,41.4-20.6,65.1-.3,13.6,1.9,27.1,6.8,39.9c2.5,6.5,6,12.6,9.1,18.8-.6,8.1-1.2,16.2-1.9,24.3-.2,3-.6,5.9-.9,8.9-.6,3.6-1.1,7.5-1.5,11.4Z" transform="translate(-18-132)" fill="#ffe2a4"/><path d="M242.6,173.9c10.6,1.3,21.3,2.5,31.8,4c2.3.3,2.4-1.1,3-2.4c4-8.8,7.7-17.8,12.3-26.2c2.6-4.8,6.4-8.9,10.2-12.9c2.5-2.6,6-4.1,9.8-2.4s4.7,5.5,4.7,9c-.2,7.2-.6,14.5-1.6,21.7-2.1,16.2-5.2,32.3-6.8,48.5-.8,8.3.3,17,1.6,25.4c2.1,14.1,5.1,28.1,7.7,42.1-18.1,9.2-36.1,18.3-54.2,27.5-29.1,14.7-58.2,29.4-87.2,44.2-2.8,1.4-4.9,1.3-7.6-.1-12.5-6.5-25-12.7-37.6-19.1-3.8-2.1-7.6-4.2-11.4-6.3.6-.4,1.1-.9,1.7-1.1c11.8-4.3,21.8-11.2,29.8-21c6.7-8.2,10.2-17.6,10.7-28.2c0-.9-.5-1.9-.7-2.8-.8.5-1.7,1-2.3,1.7-6.3,7.3-12.1,15.1-19,21.8-11,10.5-24.4,14.7-39.7,12.5-3.5-.5-6.9-1.3-10.4-2-5.7-4.1-11.7-7.8-17.1-12.2-13.4-10.8-25.5-23-34.9-37.5-8.7-13.5-14.8-27.8-14.8-44.2.7,1.1,1.4,2.1,2,3.2c5.3,9.2,12.9,15.8,23,19.3c23.1,8.2,47.4-9.6,53.1-25.6.7-1.9,1.2-4,1.3-6c.3-7.3-3.8-12-9.6-15.6-7.8-4.9-16.6-6.7-25.6-7.5c5.8-.8,11.5-2.1,17.3-2.5c28.1-1.9,56.2-3.7,84.4-5.1c15.4-.8,30.8-.5,46.3-.8c9.9.1,19.8.4,29.8.6Zm42.9,71.4c1-28.1-24.2-51.8-51.2-51.4-29.4.4-51.9,23-51.7,51.8.1,29.1,23.1,51.1,51.3,51.3c29.2.2,52.4-23.8,51.6-51.7Z" transform="translate(-18-132)" fill="#ffe2a4"/><path d="M433.7,293.8c.1,10.7-3.5,19.9-11,27.4-5.3,5.3-11.9,8.7-19,11-10.4,3.4-21,5.2-31.8,1.5-3.3-1.1-6.4-3-9.7-4.4-.7-.3-2.2-.2-2.6.3-12.9,14.7-29.4,22.5-48.4,25.6-12.2,2-24.5,2.4-36.6-.6-9.6-2.4-18-6.8-25.5-13.2-1.2-1-2.5-2-3.8-2.9c21.7-11.7,43.5-23.4,65.2-35.1c8.5-4.6,16.9-9.2,25.4-13.8c15,.7,29.9,1.4,44.9,2c8.6.4,17.2.5,25.8.9c9,.3,18.1.8,27.1,1.3Z" transform="translate(-18-132)" fill="#d5b064"/><path d="M335.9,289.5c-8.5,4.6-16.9,9.2-25.4,13.8-21.7,11.7-43.5,23.4-65.2,35.1-13.1,6.9-26.2,13.9-39.3,20.8-9.2,4.9-18.4,10-27.7,14.7-2.9,1.5-4.3,3.1-3.8,6.4.2,1.5,0,3,0,4.5-2.8-.1-5.7-.1-8.5-.2c1.4-7-2-10.7-8.1-13.7-7.4-3.6-14.3-8.2-21.5-12.4-4.7-2-6.2-5.6-6.3-10.5-.1-5-.9-10-1.5-14.9c12.5,6.3,25.1,12.6,37.6,19.1c2.7,1.4,4.8,1.5,7.6.1c29-14.8,58.1-29.5,87.2-44.2c18.1-9.1,36.1-18.3,54.2-27.5c7,3,13.9,6,20.7,8.9Z" transform="translate(-18-132)" fill="#54ac9e"/><path d="M64.8,181.5c9,.9,17.8,2.6,25.6,7.5c5.8,3.6,9.9,8.3,9.6,15.6-.1,2-.6,4.1-1.3,6-5.7,16-30,33.7-53.1,25.6-10.1-3.6-17.7-10.1-23-19.3-.6-1.1-1.3-2.1-2-3.2-.5-2.8-1.3-5.6-1.6-8.4-.8-7.4,2.7-12.9,8.6-16.9c6.2-4.3,13.4-6.1,20.7-6.7c5.5-.5,11-.2,16.5-.2Z" transform="translate(-18-132)" fill="#2f1e15"/><path d="M474.5,484.6c-3.1-6.3-6.6-12.3-9.1-18.8-4.9-12.8-7-26.3-6.8-39.9.5-23.6,6.6-45.7,20.6-65.1c2.4-3.3,5.5-6.1,8.2-9.1-.7,8.9-1.4,17.9-2.2,26.8-.7,8.1-1.8,16.2-2.5,24.3-1.3,13.5-2.4,27-3.6,40.5-1.2,12.9-2.6,25.8-4,38.7c0,.9-.3,1.8-.6,2.6Z" transform="translate(-18-132)" fill="#d5b064"/><path d="M87.4,307.7c3.5.7,6.9,1.5,10.4,2c15.2,2.2,28.7-2,39.7-12.5c7-6.6,12.7-14.5,19-21.8.6-.7,1.5-1.1,2.3-1.7.2.9.8,1.9.7,2.8-.5,10.5-4,19.9-10.7,28.2-8,9.8-17.9,16.7-29.8,21-.6.2-1.1.7-1.7,1.1-9.5-5.8-19-11.5-28.5-17.4-.6-.3-.9-1.1-1.4-1.7Z" transform="translate(-18-132)" fill="#d5b064"/><path d="M242.6,173.9c-10-.3-19.9-.5-29.9-.8c4-8.7,7.8-17.6,12-26.2c1.1-2.3,3.1-4.3,5-6.1c3.8-3.6,7.9-2.8,9.7,2.1c1.3,3.5,2.1,7.3,2.4,11c.6,6.7.6,13.4.8,20Z" transform="translate(-18-132)" fill="#d5b064"/><path d="M159.4,512.2c-.2,1.6-.4,3.1-.7,4.7-.6,3.8-2,6.8-5.8,8.5-2.1.9-3.9,2.7-5.8,4.1-9.9,0-19.9,0-29.8,0-1.3-4.6-.8-5.8,5.9-8.7c11.4-4.9,23.8-7.1,36.2-8.6Z" transform="translate(-18-132)" fill="#c6b482"/><path d="M470.4,529.5c.5-3.9.9-7.8,1.4-11.7c4.3,1.6,8.8,2.7,12.9,4.8c3,1.5,2.9,3.7.9,6.9-5.1,0-10.1,0-15.2,0Z" transform="translate(-18-132)" fill="#c6b482"/><path d="M268.2,476.3c1-9.1,2-18.2,3-27.4.5-4.7,1.4-9.3,1.6-14c.1-2.8,1.8-3.2,3.7-3.4c5.5-.6,11-1,16.5-1.6c14.1-1.5,28.3-3.2,42.4-4.7c8-.8,16-1.6,24-2.2c7-.6,14-1.4,21-1.2c15.7.5,31.4,2.1,46.8,5.4.5.1,1,.5,1.5.7-3.9,1.3-7.7,3-11.7,3.9-2.5.6-3.2,2-3.4,4-.3,3-.5,5.9-.8,8.9-.8,8.5-1.5,16.9-2.3,25.4-1.1,12.5-2.2,24.9-3.3,37.4-.7,7.3-1.4,14.6-2.1,22-18.9,0-37.8,0-56.7,0c2.4-3.3,4.9-6.6,7.3-10c1.4-2.1,3.2-4.2,3.7-6.5.6-2.6.1-5.5.1-8.2.2-.5.6-1,.6-1.5.9-17.3,1.8-34.5,2.8-51.8.1-2.5-.6-2.9-3-2.2-12.2,3.7-24.4,7.3-36.7,10.9-18.2,5.3-36.6,10.7-55,16.1Z" transform="translate(-18-132)" fill="#d5b064"/><path d="M359.6,504.7c0,2.8.6,5.6-.1,8.2-.6,2.3-2.3,4.4-3.7,6.5-2.3,3.4-4.8,6.7-7.3,10-25.8,0-51.7,0-77.5,0-2.2-4.1-4.4-8.2-6.5-12.3-.5-1-1.1-2.1-1-3.1.3-3.4.9-6.8,1.4-10.1c11.8-.2,23.7-.6,35.5-.6c12.5,0,25.1.3,37.6.5c7.1.3,14.3.7,21.6.9Z" transform="translate(-18-132)" fill="#c6b482"/><path d="M222.4,505.9c.1,7.9.1,15.7.2,23.6-9.7,0-19.4,0-29.1,0c.5-7.2,1-14.3,1.5-21.5c9.1-.7,18.2-1.4,27.4-2.1Z" transform="translate(-18-132)" fill="#c6b482"/><path d="M405.2,529.5c.7-7.3,1.4-14.6,2.1-22c6,.4,12,.9,18,1.3.8,4.7-1.1,8.3-4.3,11.7-2.4,2.6-4.2,5.9-6.2,8.9-3.2.1-6.4.1-9.6.1Z" transform="translate(-18-132)" fill="#c6b482"/><path d="M359.6,504.7c-7.2-.3-14.4-.7-21.7-.8-12.5-.3-25.1-.5-37.6-.5-11.8,0-23.7.4-35.5.6c1.1-9.2,2.3-18.4,3.4-27.7c18.4-5.4,36.8-10.8,55.2-16.2c12.2-3.6,24.5-7.2,36.7-10.9c2.4-.7,3.1-.3,3,2.2-1,17.3-1.9,34.5-2.8,51.8-.2.5-.5,1-.7,1.5Z" transform="translate(-18-132)" fill="none"/><path d="M166,384.7c2.8.1,5.7.1,8.5.2c11.9,3.1,18.1,13.4,17.5,23.4-.6,9.5-7.9,18.3-17.5,20.2-9.9,2.1-20-2.7-24.4-11.5-4.6-9.1-2.9-20.4,4.7-26.4c3.3-2.6,7.5-4,11.2-5.9Z" transform="translate(-18-132)" fill="#d56c1c"/><path d="M425.3,508.9c-6-.4-12-.9-18-1.3c1.1-12.5,2.2-24.9,3.3-37.4.8-8.5,1.5-16.9,2.3-25.4.3-3,.4-6,.8-8.9.2-2,.9-3.5,3.4-4c4-.9,7.8-2.6,11.7-3.9.4.9,1.2,1.8,1.1,2.7-1.1,20.8-2.2,41.6-3.4,62.4-.3,5.2-.8,10.5-1.2,15.8Z" transform="translate(-18-132)" fill="none"/><path d="M196.3,484c.6-9.6,1.3-19.2,1.8-28.8.1-2.1.2-4.1.1-6.2c0-1.7.6-2.5,2.4-2.5c6.7.3,13.3.4,20,.8.6,0,1.7,1.4,1.7,2.2c0,11.3-.1,22.6-.1,33.8-8.6.3-17.2.5-25.9.7Z" transform="translate(-18-132)" fill="#d5b064"/><path d="M196.3,484c8.7-.2,17.3-.4,26-.6c0,7.5,0,15,0,22.5-9.1.7-18.3,1.4-27.4,2.1.5-8,1-16,1.4-24Z" transform="translate(-18-132)" fill="none"/><path d="M285.5,245.3c.8,27.8-22.4,51.9-51.7,51.7-28.2-.2-51.1-22.2-51.3-51.3-.1-28.7,22.4-51.4,51.7-51.8c27.1-.4,52.3,23.3,51.3,51.4Zm-77-19.4c0,11.8,9.2,21.1,20.9,21.2c11.6.1,21.2-9.4,21.3-20.9.1-11.9-9.3-21.3-21.2-21.3-11.8.1-21,9.2-21,21Z" transform="translate(-18-132)" fill="#d5b064"/><path d="M208.5,225.9c0-11.8,9.2-21,21-21c11.9,0,21.3,9.4,21.2,21.3-.1,11.5-9.7,21-21.3,20.9-11.6,0-20.9-9.4-20.9-21.2Zm12-1c3.2.1,6-2.6,6.2-5.8.2-3.4-2.5-6.3-5.9-6.4-3.2-.1-6,2.5-6.1,5.8-.1,3.5,2.5,6.3,5.8,6.4Z" transform="translate(-18-132)" fill="#2f1e15"/><path d="M220.5,224.9c-3.4-.1-5.9-2.9-5.8-6.4.1-3.3,2.9-5.8,6.1-5.8c3.4.1,6,3,5.9,6.4-.2,3.3-3,5.9-6.2,5.8Z" transform="translate(-18-132)" fill="#fff"/></svg>
